<?xml version="1.0" encoding="UTF-8" standalone="no"?>
<!DOCTYPE svg PUBLIC "-//W3C//DTD SVG 1.1//EN" "http://www.w3.org/Graphics/SVG/1.1/DTD/svg11.dtd">
<svg width="100%" height="100%" viewBox="0 0 800 374" version="1.1" xmlns="http://www.w3.org/2000/svg" xmlns:xlink="http://www.w3.org/1999/xlink" xml:space="preserve" xmlns:serif="http://www.serif.com/" style="fill-rule:evenodd;clip-rule:evenodd;stroke-linejoin:round;stroke-miterlimit:2;">
    <g transform="matrix(1,0,0,1,0,-213.333333)">
        <g transform="matrix(33.333333,0,0,33.333333,0,0)">
            <path d="M0,6.4L0,17.6L1.6,17.6L1.6,6.4L0,6.4ZM3.2,6.4L3.2,17.6L4.8,17.6L4.8,6.4L3.2,6.4ZM6.4,6.4L6.4,17.6L8,17.6L8,6.4L6.4,6.4ZM9.6,6.4L9.6,17.6L11.2,17.6L11.2,6.4L9.6,6.4ZM12.8,6.4L12.8,8L24,8L24,6.4L12.8,6.4ZM12.8,9.6L12.8,11.2L24,11.2L24,9.6L12.8,9.6ZM12.8,12.8L12.8,14.4L24,14.4L24,12.8L12.8,12.8ZM12.8,16L12.8,17.6L24,17.6L24,16L12.8,16Z" style="fill:rgb(0,34,243);fill-rule:nonzero;"/>
        </g>
    </g>
</svg>
